<?xml version="1.0" encoding="UTF-8" standalone="no"?>
<!DOCTYPE svg PUBLIC "-//W3C//DTD SVG 1.1//EN" "http://www.w3.org/Graphics/SVG/1.1/DTD/svg11.dtd">
<svg width="100%" height="100%" viewBox="0 0 100 100" version="1.1" xmlns="http://www.w3.org/2000/svg" xmlns:xlink="http://www.w3.org/1999/xlink" xml:space="preserve" xmlns:serif="http://www.serif.com/" style="fill-rule:evenodd;clip-rule:evenodd;stroke-linecap:round;stroke-linejoin:round;stroke-miterlimit:1.5;">
    <g transform="matrix(1,0,0,1,-0.450047,-0.333911)">
        <g id="eye" transform="matrix(2.2368,0,0,2.2368,-64.3251,-59.3612)">
            <g transform="matrix(0.420824,0,0,0.420824,28.9588,28.9588)">
                <circle cx="50" cy="50" r="50"/>
            </g>
            <g transform="matrix(0.346527,0,0,0.346527,32.6736,32.6736)">
                <circle cx="50" cy="50" r="50" style="fill:white;"/>
            </g>
            <g transform="matrix(0.763095,-0.422761,0.46932,0.847134,5.34303,35.0341)">
                <circle cx="25.935" cy="37.363" r="8.404"/>
            </g>
            <g transform="matrix(0.280761,0,0,0.280761,35.7442,42.6538)">
                <circle cx="25.935" cy="37.363" r="8.404" style="fill:white;"/>
            </g>
        </g>
        <g id="stalk" transform="matrix(1.10382,0,0,1.10382,-7.6759,-2.712)">
            <path d="M32.075,14.89C30.59,18.453 40.624,18.808 48.127,17.689C69.81,14.457 81.402,30.619 83.371,42.933C85.927,58.918 87.365,60.91 91.328,60.52C94.205,60.237 92.029,39.023 90.749,28.266C88.807,19.999 91.739,9.886 96.864,3.212C91.182,5.588 84.944,7.733 72.635,7.362C52.723,4.133 34.634,6.016 32.075,14.89Z" style="stroke:black;stroke-width:0.91px;"/>
            <path d="M89.911,52.556C89.709,52.536 89.508,52.49 89.309,52.399C88.676,52.111 88.137,51.47 87.514,50.466C86.109,48.197 86.469,42.594 85.11,36.879C82.135,24.358 68.098,8.549 48.648,14.915C47.705,15.224 44.573,15.995 43.89,15.866C43.503,15.793 43.292,15.566 43.021,15.491C41.645,15.114 40.172,14.908 40.765,13.294C40.817,13.153 40.873,13.014 40.914,12.87C41.737,10.017 46.326,7.484 49.851,7.125C55.091,6.592 62.453,6.781 71.966,8.323C72.136,8.351 72.307,8.367 72.479,8.372C79.516,8.585 88.042,9.397 91.736,7.362C88.15,13.388 87.416,20.641 88.747,26.436C89.622,33.76 92.272,41.868 91.32,49.392C91.218,50.192 91.311,51.909 89.911,52.556Z" style="fill:white;stroke:black;stroke-width:0.91px;"/>
        </g>
        <g id="veins">
            <g transform="matrix(1.10382,0,0,1.10382,-8.46683,-2.712)">
                <path d="M40.63,18.254C39.992,20.31 39.243,22.388 38.033,24.549L39.59,29.959C38.696,25.658 39.972,21.645 44.66,18.085L40.63,18.254Z" style="stroke:black;stroke-width:0.91px;"/>
            </g>
            <g transform="matrix(-0.775024,-0.785975,-0.785975,0.775024,133.307,66.9708)">
                <path d="M40.63,18.254C39.992,20.31 39.243,22.388 38.033,24.549L39.59,29.959C38.696,25.658 39.972,21.645 44.66,18.085L40.63,18.254Z" style="stroke:black;stroke-width:0.91px;"/>
            </g>
            <g transform="matrix(-0.775024,-0.785975,-0.785975,0.775024,119.949,42.7072)">
                <path d="M40.63,18.254C39.992,20.31 38.645,22.63 38.033,24.549C37.145,27.341 37.471,29.141 37.843,30.905C38.792,27.383 39.972,21.645 44.66,18.085L40.63,18.254Z" style="stroke:black;stroke-width:0.91px;"/>
            </g>
        </g>
    </g>
</svg>
