<?xml version="1.0" encoding="UTF-8" standalone="no"?>
<!DOCTYPE svg PUBLIC "-//W3C//DTD SVG 1.1//EN" "http://www.w3.org/Graphics/SVG/1.1/DTD/svg11.dtd">
<svg width="900px"  viewBox="0 0 3015 222" version="1.1" xmlns="http://www.w3.org/2000/svg" xmlns:xlink="http://www.w3.org/1999/xlink" xml:space="preserve" xmlns:serif="http://www.serif.com/" style="fill-rule:evenodd;clip-rule:evenodd;stroke-linecap:square;stroke-miterlimit:3;">
    <g id="phb_footer">
        <path id="color_tab" d="M89.22,215.784L7.379,215.784L7.379,110.338C45.712,152.679 127.31,174.018 188.509,120.641L89.22,215.784Z" style="fill:#004711;fill-opacity:0.75;"/>
        <g id="lines" style='fill:none;stroke:#d6be00;'>
            <g id="bottom_line">
                <path d="M3007.38,13.664C2995.29,26.448 2978.06,44.545 2959.55,63.58C2942.63,83.254 2927.48,107.251 2925.05,119.97C2893.69,88.803 2838.55,84.245 2818.49,84.245C234.786,84.245 202.744,84.485 202.744,84.485C143.257,172.286 36.615,139.712 7.379,90.374" style="stroke-width:4.67px;"/>
                <path d="M2959.55,63.58C2971.89,51.277 2992.82,34.445 3007.38,29.64" style="stroke-width:4.67px;stroke-miterlimit:1.5;"/>
            </g>
            <g id="top_line">
                <path d="M3007.38,6.009C2950.47,51.929 2839.45,71.197 2749.62,71.197L257.945,71.348C215.9,71.477 213.571,100.61 189.274,119.97" style="stroke-width:6.67px;stroke-miterlimit:1.5;"/>
                <path d="M89.22,215.784L189.274,119.909L189.274,119.97C127.991,174.196 45.872,152.856 7.379,110.338" style="stroke-width:6.67px;stroke-miterlimit:1.5;"/>
            </g>
        </g>
    </g>
</svg>
